<svg width="758" height="389" version="1.1" xmlns="http://www.w3.org/2000/svg" desc="Created with imagetracer.js version 1.2.6" ><path fill="rgb(12,12,12)" stroke="rgb(12,12,12)" strokeWidth="1" opacity="1" d="M 370.5 102 L 385.5 102 L 395.5 105 Q 406.4 110.1 413 119.5 Q 418.3 126 419 136 Q 439.1 138.7 449 152.5 Q 458.1 162.9 457 183.5 Q 453.7 201.7 441.5 211 Q 433.6 217.6 421.5 220 L 384 220 L 384 186 L 405.5 186 L 401 180.5 L 378.5 153 L 376 154.5 L 351 186 L 372 186 L 372 220 L 334.5 220 Q 318 216.5 309 205.5 Q 302.8 198.7 300 188.5 L 299 172.5 Q 302.3 154.3 314.5 145 Q 322.9 137.1 337 136 Q 340 118.8 352.5 110 Q 359.5 104 370.5 102 Z " /><path fill="rgb(12,12,12)" stroke="rgb(12,12,12)" strokeWidth="1" opacity="1" d="M 297 264 L 302 264.5 L 302 289.5 L 304 293 L 301.5 294 L 298 291.5 L 297 287.5 L 297 264 Z " /><path fill="rgb(12,12,12)" stroke="rgb(12,12,12)" strokeWidth="1" opacity="1" d="M 364 264 L 368 264.5 L 368 293 Q 364.3 294.5 365 291.5 L 363.5 292 L 358.5 294 L 352 290.5 Q 349.3 287.2 350 280.5 L 355.5 273 L 359.5 272 L 363.5 274 L 364 264 Z M 359 276 L 356 277 Q 354 280 355 288 Q 356 291 362 290 L 364 288 L 364 277 L 359 276 Z " /><path fill="rgb(12,12,12)" stroke="rgb(12,12,12)" strokeWidth="1" opacity="1" d="M 500 264 Q 503.7 262.8 502 268 L 507 268 L 507 270 L 504 271.5 L 505 276 L 500.5 274 Q 499.4 276.8 496 276 L 498 271.5 L 494 269.5 L 495.5 267 L 499 268 L 500 264 Z " /><path fill="rgb(12,12,12)" stroke="rgb(12,12,12)" strokeWidth="1" opacity="1" d="M 248 266 L 252 266.5 L 252 283.5 L 254 289 L 259.5 290 L 263 287.5 L 264 285.5 L 264 266 L 268 266.5 L 268 286.5 L 264.5 292 L 257.5 294 L 253.5 293 L 249 288.5 L 248 284.5 L 248 266 Z " /><path fill="rgb(12,12,12)" stroke="rgb(12,12,12)" strokeWidth="1" opacity="1" d="M 388 266 L 392 266.5 L 392 293 L 388 292.5 L 388 266 Z " /><path fill="rgb(12,12,12)" stroke="rgb(12,12,12)" strokeWidth="1" opacity="1" d="M 284.5 272 Q 289.3 272.3 291 275.5 L 293 284.5 Q 291.8 290.3 287.5 293 L 283.5 294 L 279.5 292 L 279 301 L 275 300.5 L 275 273 Q 278.8 271.5 278 274.5 L 279.5 274 L 284.5 272 Z M 282 276 L 279 279 L 279 289 L 285 290 Q 290 288 288 279 Q 287 275 282 276 Z " /><path fill="rgb(12,12,12)" stroke="rgb(12,12,12)" strokeWidth="1" opacity="1" d="M 315.5 272 Q 322.8 272.3 325 277.5 L 326 285.5 L 320.5 293 L 316.5 294 L 312.5 293 L 308 288.5 L 307 279.5 L 309 275 L 315.5 272 Z M 315 276 L 311 281 Q 310 288 315 290 Q 320 291 321 288 Q 322 281 320 278 Q 319 275 315 276 Z " /><path fill="rgb(12,12,12)" stroke="rgb(12,12,12)" strokeWidth="1" opacity="1" d="M 337.5 272 L 344 274.5 L 346 279.5 L 346 293 L 342 293 L 342 291.5 L 340.5 292 L 335.5 294 L 330 290.5 L 329 287.5 L 331.5 283 L 341 279.5 L 339.5 276 Q 334.2 275.2 332.5 278 L 331 274 L 337.5 272 Z M 339 283 L 336 285 L 334 285 L 334 290 Q 340 291 342 288 Q 344 281 339 283 Z " /><path fill="rgb(12,12,12)" stroke="rgb(12,12,12)" strokeWidth="1" opacity="1" d="M 408.5 272 L 414.5 276 Q 416.4 272.4 421.5 272 L 426 275.5 L 427 278.5 L 427 293 L 423 292.5 L 423 279.5 L 420.5 276 L 415 278.5 L 415 292.5 L 411 293 L 411 280.5 L 408.5 276 L 403 278.5 L 403 293 L 398 293 L 398 273.5 L 402 273 Q 400.9 275.7 403.5 275 L 408.5 272 Z " /><path fill="rgb(12,12,12)" stroke="rgb(12,12,12)" strokeWidth="1" opacity="1" d="M 439.5 272 Q 445.1 271.9 447 275.5 L 448 278.5 L 448 293 L 444 293 L 444 291.5 L 442.5 292 L 437.5 294 L 432 290.5 Q 431.4 285.1 433 283 L 444 279.5 L 441.5 276 Q 436.2 275.2 434.5 278 L 433 274 L 439.5 272 Z M 441 283 L 436 285 Q 435 289 438 290 Q 443 291 444 288 Q 446 281 441 283 Z " /><path fill="rgb(12,12,12)" stroke="rgb(12,12,12)" strokeWidth="1" opacity="1" d="M 460.5 272 L 471 273 Q 472.8 277.5 467.5 276 L 468 277.5 Q 468.6 282.9 467 285 L 459.5 287 Q 458.3 284.8 457 287.5 L 457.5 290 L 466.5 290 L 470 291 L 471 296.5 L 468.5 300 Q 465.2 303.2 457.5 302 L 453 299.5 L 452 295.5 L 455 292.5 L 454 291.5 L 453 288.5 L 455 284.5 Q 452.2 282.8 453 277.5 L 456.5 273 L 460.5 272 Z M 461 275 L 457 278 Q 456 283 460 284 L 463 283 Q 465 284 464 278 L 461 275 Z M 458 293 Q 455 294 456 298 Q 458 301 465 299 Q 468 298 467 294 L 458 293 Z " /><path fill="rgb(12,12,12)" stroke="rgb(12,12,12)" strokeWidth="1" opacity="1" d="M 482.5 272 Q 487.3 272.3 489 275.5 L 491 284 L 477 284.5 L 480.5 290 Q 486.6 290.8 489 289 L 487.5 293 L 482.5 294 Q 476.8 292.8 474 288.5 L 473 281.5 Q 474.3 275.8 478.5 273 L 482.5 272 Z M 481 276 L 478 280 L 478 281 L 487 281 L 487 279 Q 486 275 481 276 Z " /><path fill="rgb(217,217,217)" stroke="rgb(217,217,217)" strokeWidth="1" opacity="1" d="M 0 0 L 758 0 L 758 389 L 0 389 L 0 0 Z M 371 102 Q 360 104 353 110 Q 340 119 337 136 Q 323 137 315 145 Q 302 154 299 173 L 300 189 Q 303 199 309 206 Q 318 217 335 220 L 372 220 L 372 186 L 351 186 L 376 155 L 379 153 L 401 181 L 406 186 L 384 186 L 384 220 L 422 220 Q 434 218 442 211 Q 454 202 457 184 Q 458 163 449 153 Q 439 139 419 136 Q 418 126 413 120 Q 406 110 396 105 L 386 102 L 371 102 Z M 297 264 L 297 288 L 298 292 L 302 294 L 304 293 L 302 290 L 302 265 L 297 264 Z M 364 264 L 364 274 L 360 272 L 356 273 L 350 281 Q 349 287 352 291 L 359 294 L 364 292 L 365 292 Q 364 295 368 293 L 368 265 L 364 264 Z M 500 264 L 499 268 L 496 267 L 494 270 L 498 272 L 496 276 Q 499 277 501 274 L 505 276 L 504 272 L 507 270 L 507 268 L 502 268 Q 504 263 500 264 Z M 248 266 L 248 285 L 249 289 L 254 293 L 258 294 L 265 292 L 268 287 L 268 267 L 264 266 L 264 286 L 263 288 L 260 290 L 254 289 L 252 284 L 252 267 L 248 266 Z M 388 266 L 388 293 L 392 293 L 392 267 L 388 266 Z M 285 272 L 280 274 L 278 275 Q 279 271 275 273 L 275 301 L 279 301 L 280 292 L 284 294 L 288 293 Q 292 290 293 285 L 291 276 Q 289 272 285 272 Z M 316 272 L 309 275 L 307 280 L 308 289 L 313 293 L 317 294 L 321 293 L 326 286 L 325 278 Q 323 272 316 272 Z M 338 272 L 331 274 L 333 278 Q 334 275 340 276 L 341 280 L 332 283 L 329 288 L 330 291 L 336 294 L 341 292 L 342 292 L 342 293 L 346 293 L 346 280 L 344 275 L 338 272 Z M 409 272 L 404 275 Q 401 276 402 273 L 398 274 L 398 293 L 403 293 L 403 279 L 409 276 L 411 281 L 411 293 L 415 293 L 415 279 L 421 276 L 423 280 L 423 293 L 427 293 L 427 279 L 426 276 L 422 272 Q 416 272 415 276 L 409 272 Z M 440 272 L 433 274 L 435 278 Q 436 275 442 276 L 444 280 L 433 283 Q 431 285 432 291 L 438 294 L 443 292 L 444 292 L 444 293 L 448 293 L 448 279 L 447 276 Q 445 272 440 272 Z M 461 272 L 457 273 L 453 278 Q 452 283 455 285 L 453 289 L 454 292 L 455 293 L 452 296 L 453 300 L 458 302 Q 465 303 469 300 L 471 297 L 470 291 L 467 290 L 458 290 L 457 288 Q 458 285 460 287 L 467 285 Q 469 283 468 278 L 468 276 Q 473 278 471 273 L 461 272 Z M 483 272 L 479 273 Q 474 276 473 282 L 474 289 Q 477 293 483 294 L 488 293 L 489 289 Q 487 291 481 290 L 477 285 L 491 284 L 489 276 Q 487 272 483 272 Z " /><path fill="rgb(217,217,217)" stroke="rgb(217,217,217)" strokeWidth="1" opacity="1" d="M 460.5 275 L 464 277.5 Q 465.3 283.6 462.5 283 L 459.5 284 Q 456 283 457 277.5 L 460.5 275 Z " /><path fill="rgb(217,217,217)" stroke="rgb(217,217,217)" strokeWidth="1" opacity="1" d="M 281.5 276 Q 287 275 288 278.5 Q 290 288 284.5 290 L 279 289 L 279 278.5 L 281.5 276 Z " /><path fill="rgb(217,217,217)" stroke="rgb(217,217,217)" strokeWidth="1" opacity="1" d="M 314.5 276 Q 319 275 320 277.5 Q 322.3 280.7 321 287.5 Q 320 291 314.5 290 Q 309.9 288.1 311 280.5 L 314.5 276 Z " /><path fill="rgb(217,217,217)" stroke="rgb(217,217,217)" strokeWidth="1" opacity="1" d="M 358.5 276 L 364 277 L 364 287.5 L 361.5 290 Q 356 291 355 287.5 Q 354 280 356 277 L 358.5 276 Z " /><path fill="rgb(217,217,217)" stroke="rgb(217,217,217)" strokeWidth="1" opacity="1" d="M 480.5 276 Q 486 275 487 278.5 L 486.5 281 L 477.5 281 L 478 279.5 L 480.5 276 Z " /><path fill="rgb(217,217,217)" stroke="rgb(217,217,217)" strokeWidth="1" opacity="1" d="M 338.5 283 Q 344.2 281.2 342 287.5 Q 339.7 291 334 290 L 334 285 L 335.5 285 L 338.5 283 Z " /><path fill="rgb(217,217,217)" stroke="rgb(217,217,217)" strokeWidth="1" opacity="1" d="M 440.5 283 Q 446.2 281.2 444 287.5 Q 442.6 290.6 437.5 290 Q 435 288.8 436 285 L 440.5 283 Z " /><path fill="rgb(217,217,217)" stroke="rgb(217,217,217)" strokeWidth="1" opacity="1" d="M 457.5 293 L 467 294 Q 467.8 297.8 464.5 299 Q 457.7 300.8 456 297.5 Q 455.3 293.8 457.5 293 Z " /></svg>