<svg xmlns="http://www.w3.org/2000/svg" width="16" height="16" viewBox="0 0 16 16" fill="none">
  <path d="M2.29393 15.1061L2.4 15.2121L2.50607 15.1061L8 9.61213L13.4939 15.1061L13.6 15.2121L13.7061 15.1061L15.1061 13.7061L15.2121 13.6L15.1061 13.4939L9.61213 8L15.1061 2.50607L15.2121 2.4L15.1061 2.29393L13.7061 0.893934L13.6 0.787868L13.4939 0.893934L8 6.38787L2.50607 0.893934L2.4 0.787868L2.29393 0.893934L0.893934 2.29393L0.787868 2.4L0.893934 2.50607L6.38787 8L0.893934 13.4939L0.787868 13.6L0.893934 13.7061L2.29393 15.1061Z" fill="#9B525F" stroke="#A15D69" stroke-width="0.3"/>
</svg>