<svg width="106" height="106" viewBox="0 0 106 106" fill="none" xmlns="http://www.w3.org/2000/svg">
<path d="M52.9997 98.2505C77.711 98.2505 98.2504 77.7547 98.2504 52.9999C98.2504 28.2887 77.6656 7.74927 52.9543 7.74927C28.2014 7.74927 7.75098 28.2887 7.75098 52.9999C7.75098 77.7547 28.2449 98.2505 52.9997 98.2505ZM53.0016 90.7094C32.059 90.7094 15.3319 73.9387 15.3319 52.9999C15.3319 32.1028 32.0136 15.2904 52.9543 15.2904C73.8495 15.2904 90.6619 32.1047 90.7073 52.9999C90.7509 73.9406 73.8931 90.7094 52.9978 90.7094M52.9543 61.0294C55.0819 61.0294 56.2801 59.8312 56.3236 57.5257L56.9899 34.1016C57.0353 31.8378 55.2598 30.1531 52.9089 30.1531C50.5125 30.1531 48.8279 31.7942 48.8714 34.0562L49.4487 57.5257C49.4923 59.7877 50.7359 61.0294 52.9543 61.0294ZM52.9543 75.4473C55.4813 75.4473 57.7432 73.4068 57.7432 70.8344C57.7432 68.2166 55.5267 66.2196 52.9543 66.2196C50.3365 66.2196 48.1616 68.2601 48.1616 70.8344C48.1616 73.3633 50.38 75.4473 52.9543 75.4473Z" fill="#C90024"/>
</svg>
